inDegrees=no
num_controls=7
num_derivatives=13
num_iterations=153
num_multipliers=7
num_parameters=0
num_slacks=7
num_states=26
objective=5.403212
objective_accelerations=0.779012
objective_balance=0.039466
objective_effort=0.250077
objective_height=4.282399
objective_ligament=0.052258
solver_duration=1676.304403
status=Solve_Succeeded
success=true
DataType=double
version=3
OpenSimVersion=4.4-2022-07-23-0e9fedc
endheader
time	/jointset/ground_pelvis/pelvis_tilt/value	/jointset/ground_pelvis/pelvis_tx/value	/jointset/ground_pelvis/pelvis_ty/value	/jointset/hip_l/hip_flexion_l/value	/jointset/hip_l/hip_adduction_l/value	/jointset/hip_l/hip_rotation_l/value	/jointset/back/lumbar_extension/value	/jointset/patellofemoral_l/patellar_flexion_l/value	/jointset/knee_l/knee_flexion_l/value	/jointset/knee_l/knee_adduction_l/value	/jointset/knee_l/knee_rotation_l/value	/jointset/ankle_l/ankle_angle_l/value	/jointset/subtalar_l/subtalar_angle_l/value	/jointset/ground_pelvis/pelvis_tilt/speed	/jointset/ground_pelvis/pelvis_tx/speed	/jointset/ground_pelvis/pelvis_ty/speed	/jointset/hip_l/hip_flexion_l/speed	/jointset/hip_l/hip_adduction_l/speed	/jointset/hip_l/hip_rotation_l/speed	/jointset/back/lumbar_extension/speed	/jointset/patellofemoral_l/patellar_flexion_l/speed	/jointset/knee_l/knee_flexion_l/speed	/jointset/knee_l/knee_adduction_l/speed	/jointset/knee_l/knee_rotation_l/speed	/jointset/ankle_l/ankle_angle_l/speed	/jointset/subtalar_l/subtalar_angle_l/speed	/forceset/tau_hip_flexion_l	/forceset/tau_hip_adduction_l	/forceset/tau_hip_rotation_l	/forceset/tau_knee_flexion_l	/forceset/tau_ankle_angle_l	/forceset/tau_subtalar_angle_l	/forceset/tau_lumbar_extension	lambda_cid13_p0	lambda_cid13_p1	lambda_cid13_p2	lambda_cid13_p3	lambda_cid13_p4	lambda_cid13_p5	lambda_cid14_p0	/jointset/ground_pelvis/pelvis_tilt/accel	/jointset/ground_pelvis/pelvis_tx/accel	/jointset/ground_pelvis/pelvis_ty/accel	/jointset/hip_l/hip_flexion_l/accel	/jointset/hip_l/hip_adduction_l/accel	/jointset/hip_l/hip_rotation_l/accel	/jointset/back/lumbar_extension/accel	/jointset/patellofemoral_l/patellar_flexion_l/accel	/jointset/knee_l/knee_flexion_l/accel	/jointset/knee_l/knee_adduction_l/accel	/jointset/knee_l/knee_rotation_l/accel	/jointset/ankle_l/ankle_angle_l/accel	/jointset/subtalar_l/subtalar_angle_l/accel	gamma_cid13_p0	gamma_cid13_p1	gamma_cid13_p2	gamma_cid13_p3	gamma_cid13_p4	gamma_cid13_p5	gamma_cid14_p0
1	-0.9253998304167373	-0.1678871092558284	0.5815791515204508	2.181661502404676	-0.3395329416753985	0.08269126013552754	-0.4363316920457136	1.125637052363991	1.12563705236402	-0.02316391553752568	-0.174531482149328	0.001866853962380471	0.08089128607671801	-0.1701621539161427	0.00425461457060492	0.03328019993404541	0.01751360007468061	-0.009974268871274642	-0.05913835181870125	-5.055480101543158e-07	-0.1705341716403529	-0.1705341716403188	-0.01283750984060225	2.32034057281367e-06	-0.03118270994966628	-0.01862537838056106	-0.4155112122111745	-0.009416455702594209	-0.00386575563724567	-0.1168636189773169	0.09902999940555075	0.01661241548961315	0.2980687183724779	1.102873437213328	-5.13319581475065	-2.060871618949989	-6.076349228202775	-553.8117409431815	-64.87128484779586	-1.022954960694198	3.441886989892921	0.7220993667282887	1.909616891570772	-8.086775650425064	-0.3271132735607796	-1.371697000129748	-0.02703288469685011	-4.059412709614639	-4.059412709614655	-0.4629450318840391	-0.02954477862572308	0.2927604397711703	-0.2296556333356333	-1.381822411909204e-08	-6.67688899468829e-08	-4.098633436383219e-09	-7.427392840711468e-10	-1.347176394588289e-08	3.374893833060521e-08	-1.680931745921643e-08
1.01	-0.9269303071743963	-0.1678084869099103	0.5820072335071309	2.181433454478862	-0.3396481256107045	0.08203213808445162	-0.4363316980761819	1.1237287407911	1.123728740791107	-0.02331487597759576	-0.1745314441773897	0.001569583266145091	0.08069445003241632	-0.135907785823229	0.01148106745728293	0.05232681561814331	-0.06313022483191041	-0.01305439016124748	-0.07268360398471702	-9.653390318417565e-07	-0.211119028963245	-0.2111190289632404	-0.0173513121259392	4.658679056220639e-06	-0.02828025680424607	-0.02073606712005913	-0.4158379538373228	-0.009227582484461972	-0.003847150984671214	-0.1161734792077096	0.09887056103090097	0.01673770987897769	0.2982492361415769	1.074822662751351	-5.195900335165493	-2.035796640556873	-6.292899729804515	-553.7263613885312	-64.84892398847367	-1.051075846732697	3.421020602680502	0.7245987301455223	1.900772996995545	-8.054245131617481	-0.2972313911892446	-1.345588496627196	0.01340775460458664	-4.056651136462608	-4.05665113646711	-0.4451267721504409	0.01503327425621826	0.2876582944739553	-0.2008968462633008	-1.409165457999349e-08	-7.863159979748778e-08	-1.153982734394451e-08	-7.166317981387698e-09	-1.816412848728266e-08	4.5929444514848e-08	-2.002237028259635e-08
1.02	-0.9281174784743861	-0.1676572639390239	0.5826254994686855	2.18039875645981	-0.3397938647258046	0.08123763367735894	-0.4363317166483538	1.121414854866413	1.121414854866398	-0.02351088022957873	-0.174531400795236	0.001301071209873951	0.08047668283031836	-0.101501062382715	0.01877473956425283	0.07131699490893381	-0.1438164185721569	-0.01608530483016941	-0.08621482302232049	-3.013893671527793e-06	-0.2516490419995795	-0.2516490419996067	-0.02184627222295369	3.402384372341971e-06	-0.02543098195696353	-0.02281160993981341	-0.416164695463469	-0.009038709266331055	-0.003828546332108818	-0.1154833394380974	0.09871112265625322	0.01686300426834161	0.2984297539106762	1.043354599334744	-5.259118658351753	-2.009369091114717	-6.52751386621937	-553.7196652016644	-64.82035336957431	-1.085696930407031	3.47235805941293	0.7355432107867076	1.898329612909312	-8.09524941715619	-0.3172719493506332	-1.368890374447336	-0.02735063742034726	-4.048443852303095	-4.048443852303611	-0.4591765942195553	-0.03026370525924062	0.2821247801437038	-0.222626449386887	-1.324442351766403e-08	-9.069795462335914e-08	-2.303614311826214e-08	-1.589638938762643e-08	-2.124496117441575e-08	5.512237993933489e-08	-2.267554909704899e-08
1.03	-0.9289598773091063	-0.1674327456705032	0.5834333101070711	2.178557165397363	-0.3399696557693903	0.08030799965386784	-0.436331756302748	1.118696021680436	1.118696021680418	-0.02375183067012921	-0.1745313693683249	0.00106074028459271	0.08023833134136148	-0.06695952802485258	0.02614234366452162	0.09022830622898202	-0.2244905614430745	-0.01906097859710248	-0.09970767782063021	-3.963042631939417e-06	-0.292100585877394	-0.2921005858774134	-0.02633792598483574	2.441593546263563e-06	-0.02264764710167194	-0.02485020111457637	-0.4160725686201353	-0.008791574002362083	-0.003792928981375285	-0.1147972347548635	0.09854072212752835	0.01704844845414356	0.2983753021426337	1.029417400228968	-5.350781434848646	-1.97926158598243	-6.77544250314817	-553.3977726974236	-64.83121556969924	-1.127117800635164	3.447923225398156	0.7393784553839015	1.885003030277786	-8.051816788612316	-0.2859081599095405	-1.338859222708112	0.0136760384130131	-4.040953177121049	-4.040953177119561	-0.443302260266567	0.01492114461158398	0.2745648826038615	-0.1931816813357223	-1.238575713366893e-08	-1.027663874591822e-07	-3.457383768713853e-08	-2.464999643375214e-08	-2.430934965895426e-08	6.428482994790589e-08	-2.532301491141054e-08
1.04	-0.9294562863799586	-0.1671341494718325	0.5844297280864024	2.175909168892896	-0.3401748421645536	0.07924356184436521	-0.4363317768302284	1.115573184351361	1.115573184351341	-0.02403752614691543	-0.1745313608671882	0.0008478681167419597	0.07997985269469399	-0.03230310960997833	0.0335903255942275	0.1090384630980914	-0.305097506976106	-0.02196437514583486	-0.1131755802263508	8.114902882865149e-07	-0.3324498706192217	-0.3324498706192292	-0.03079527947047903	-1.182773045242284e-06	-0.01993923047109873	-0.02683704148192729	-0.4159804417768015	-0.008544438738381689	-0.003757311630653128	-0.1141111300716179	0.09837032159881186	0.01723389263995976	0.2983208503745874	1.012009590180937	-5.443045563647268	-1.947676877764824	-7.041618544650735	-553.1552432818243	-64.83755979532243	-1.175641685337904	3.49533487081527	0.7516187766741619	1.878098722721565	-8.081809949579023	-0.3028165057105199	-1.363899895929531	-0.02620590104401534	-4.027992025105709	-4.027992025105456	-0.4523165389718107	-0.03079642041236836	0.2671411352000844	-0.212276287904487	-1.104519622961801e-08	-1.149849048638425e-07	-5.132148757460285e-08	-3.364324603607834e-08	-2.647908091053713e-08	6.953068086091062e-08	-2.704962418508642e-08
1.05	-0.9296055936860488	-0.1667606520701145	0.5856136692811527	2.17245559782406	-0.3404087165133711	0.07804473113743654	-0.4363317558164443	1.112047439058889	1.11204743905886	-0.02436779420827026	-0.1745313845849465	0.0006616516974642688	0.07970172985356874	0.002455581385094261	0.04112436220155129	0.127725714271089	-0.3855886503489768	-0.0247958130886763	-0.1265822342965644	2.432474446908721e-06	-0.372675008510164	-0.3726750085101979	-0.03525331263502324	-3.467378613774549e-06	-0.01732063944723666	-0.02877754970392534	-0.4154611014474157	-0.008239966400699125	-0.003702479261411571	-0.1134271490303224	0.09817175808063332	0.01747604307503996	0.298021699464126	1.006324016195876	-5.561823569622114	-1.912055218916092	-7.308969549720135	-552.5914773077208	-64.88060846758832	-1.231658717136783	3.468220488632822	0.756568600937759	1.860423331696161	-8.02856442159573	-0.2710784753667166	-1.327823960100141	0.01320228006939422	-4.016141999703113	-4.016141999707282	-0.4418267750398926	0.01506406546290179	0.2567227222836416	-0.1834128204404253	-9.689576121815353e-09	-1.27208112411279e-07	-6.823194856577301e-08	-4.264398446828581e-08	-2.862085412359014e-08	7.465413805217895e-08	-2.874745669186588e-08
